<svg data-v-423bf9ae="" xmlns="http://www.w3.org/2000/svg" viewBox="0 0 518 90" class="iconLeft"><!----><defs data-v-423bf9ae=""><linearGradient data-v-423bf9ae="" gradientTransform="rotate(25)" id="f81310b4-18c1-45cf-ab3d-2ddf823e1175" x1="0%" y1="0%" x2="100%" y2="0%"><stop data-v-423bf9ae="" offset="0%" style="stop-color: rgb(81, 164, 251); stop-opacity: 1;"></stop><stop data-v-423bf9ae="" offset="100%" style="stop-color: rgb(81, 164, 251); stop-opacity: 1;"></stop></linearGradient></defs><!----><g data-v-423bf9ae="" id="f54a7443-a562-4a27-a202-bed12f7d4f73" fill="#ffffff" transform="matrix(5.424955053999871,0,0,5.424955053999871,104.30379812392749,5.886075862381134)"><path d="M2.17 8.68C2.17 8.20 2.30 7.82 2.56 7.52C2.82 7.22 3.19 7.07 3.67 7.07C4.11 7.07 4.42 7.20 4.61 7.46C4.80 7.72 4.90 8.13 4.90 8.68L4.90 12.60L6.02 12.60L6.02 8.68C6.02 8.20 6.15 7.82 6.41 7.52C6.67 7.22 7.04 7.07 7.52 7.07C7.96 7.07 8.27 7.20 8.46 7.46C8.65 7.72 8.75 8.13 8.75 8.68L8.75 12.60L9.87 12.60L9.87 8.54C9.87 7.71 9.69 7.08 9.34 6.66C8.98 6.23 8.47 6.02 7.80 6.02C7.39 6.02 7.00 6.12 6.65 6.33C6.30 6.53 6.01 6.81 5.80 7.17C5.49 6.40 4.87 6.02 3.95 6.02C3.20 6.02 2.61 6.33 2.17 6.96L2.17 6.16L1.05 6.16L1.05 12.60L2.17 12.60ZM11.41 9.38C11.41 10.35 11.73 11.15 12.36 11.79C13.00 12.42 13.79 12.74 14.74 12.74C15.69 12.74 16.49 12.42 17.12 11.79C17.76 11.15 18.07 10.35 18.07 9.38C18.07 8.41 17.76 7.61 17.12 6.97C16.49 6.34 15.69 6.02 14.74 6.02C13.79 6.02 13.00 6.34 12.36 6.97C11.73 7.61 11.41 8.41 11.41 9.38ZM12.54 9.38C12.54 8.71 12.75 8.15 13.17 7.72C13.58 7.29 14.11 7.07 14.74 7.07C15.38 7.07 15.90 7.29 16.32 7.72C16.73 8.15 16.94 8.71 16.94 9.38C16.94 10.05 16.73 10.61 16.32 11.04C15.90 11.47 15.38 11.69 14.74 11.69C14.11 11.69 13.58 11.47 13.17 11.04C12.75 10.61 12.54 10.05 12.54 9.38ZM19.91 10.35L18.98 10.88C19.08 11.40 19.37 11.84 19.87 12.20C20.36 12.56 20.91 12.74 21.50 12.74C22.23 12.74 22.81 12.58 23.23 12.26C23.65 11.93 23.86 11.44 23.86 10.78C23.86 10.01 23.26 9.37 22.08 8.88C21.76 8.75 21.51 8.64 21.33 8.55C21.15 8.46 20.96 8.34 20.78 8.18C20.60 8.03 20.51 7.87 20.51 7.71C20.51 7.29 20.84 7.08 21.49 7.08C21.77 7.08 22.04 7.15 22.31 7.28C22.57 7.41 22.77 7.60 22.90 7.85L23.80 7.28C23.68 6.93 23.39 6.63 22.93 6.38C22.47 6.14 21.99 6.02 21.48 6.02C20.93 6.02 20.44 6.18 20.02 6.49C19.60 6.80 19.39 7.21 19.39 7.71C19.39 7.97 19.44 8.19 19.54 8.40C19.65 8.61 19.80 8.78 20.00 8.93C20.20 9.08 20.39 9.20 20.57 9.29C20.74 9.38 20.97 9.48 21.24 9.59C21.48 9.68 21.66 9.76 21.79 9.82C21.92 9.88 22.06 9.97 22.23 10.07C22.39 10.18 22.51 10.30 22.58 10.43C22.66 10.56 22.69 10.71 22.69 10.88C22.69 11.42 22.32 11.69 21.57 11.69C21.17 11.69 20.82 11.56 20.50 11.31C20.19 11.06 19.99 10.74 19.91 10.35ZM29.78 8.71L25.94 8.71C26.00 8.19 26.21 7.78 26.59 7.47C26.97 7.16 27.43 7.00 27.96 7.00C28.50 7.00 28.92 7.15 29.23 7.46C29.54 7.77 29.72 8.19 29.78 8.71ZM25.91 9.66L30.98 9.66C30.99 9.59 31.00 9.47 31.00 9.32C31.00 8.32 30.72 7.51 30.16 6.92C29.61 6.32 28.87 6.02 27.96 6.02C27.02 6.02 26.25 6.33 25.66 6.96C25.06 7.59 24.77 8.40 24.77 9.38C24.77 10.35 25.06 11.15 25.63 11.79C26.21 12.42 26.94 12.74 27.82 12.74C28.59 12.74 29.21 12.60 29.67 12.33C30.12 12.06 30.53 11.65 30.88 11.10L29.97 10.53C29.50 11.30 28.83 11.69 27.96 11.69C27.37 11.69 26.89 11.51 26.53 11.16C26.17 10.80 25.96 10.30 25.91 9.66ZM32.83 10.35L31.91 10.88C32.00 11.40 32.29 11.84 32.79 12.20C33.28 12.56 33.83 12.74 34.43 12.74C35.15 12.74 35.73 12.58 36.15 12.26C36.57 11.93 36.78 11.44 36.78 10.78C36.78 10.01 36.19 9.37 35 8.88C34.68 8.75 34.43 8.64 34.25 8.55C34.07 8.46 33.89 8.34 33.70 8.18C33.52 8.03 33.43 7.87 33.43 7.71C33.43 7.29 33.76 7.08 34.41 7.08C34.69 7.08 34.97 7.15 35.23 7.28C35.50 7.41 35.70 7.60 35.83 7.85L36.72 7.28C36.60 6.93 36.31 6.63 35.85 6.38C35.40 6.14 34.91 6.02 34.40 6.02C33.85 6.02 33.36 6.18 32.94 6.49C32.52 6.80 32.31 7.21 32.31 7.71C32.31 7.97 32.36 8.19 32.47 8.40C32.57 8.61 32.72 8.78 32.92 8.93C33.12 9.08 33.31 9.20 33.49 9.29C33.67 9.38 33.89 9.48 34.16 9.59C34.40 9.68 34.59 9.76 34.71 9.82C34.84 9.88 34.98 9.97 35.15 10.07C35.31 10.18 35.43 10.30 35.50 10.43C35.58 10.56 35.62 10.71 35.62 10.88C35.62 11.42 35.24 11.69 34.50 11.69C34.09 11.69 33.74 11.56 33.42 11.31C33.11 11.06 32.91 10.74 32.83 10.35ZM42.95 9.38C42.95 8.71 43.16 8.15 43.58 7.72C43.99 7.29 44.52 7.07 45.15 7.07C45.65 7.07 46.12 7.18 46.54 7.40C46.96 7.62 47.24 7.89 47.39 8.20L47.39 6.85C47.17 6.59 46.85 6.39 46.44 6.24C46.03 6.09 45.60 6.02 45.15 6.02C44.20 6.02 43.40 6.34 42.77 6.97C42.14 7.61 41.82 8.41 41.82 9.38C41.82 10.35 42.14 11.15 42.77 11.79C43.40 12.42 44.20 12.74 45.15 12.74C45.61 12.74 46.04 12.67 46.45 12.52C46.86 12.38 47.18 12.18 47.39 11.91L47.39 10.56C47.24 10.87 46.96 11.14 46.54 11.36C46.12 11.58 45.65 11.69 45.15 11.69C44.52 11.69 43.99 11.47 43.58 11.04C43.16 10.61 42.95 10.05 42.95 9.38ZM48.58 9.38C48.58 10.35 48.90 11.15 49.53 11.79C50.17 12.42 50.96 12.74 51.91 12.74C52.86 12.74 53.66 12.42 54.29 11.79C54.93 11.15 55.24 10.35 55.24 9.38C55.24 8.41 54.93 7.61 54.29 6.97C53.66 6.34 52.86 6.02 51.91 6.02C50.96 6.02 50.17 6.34 49.53 6.97C48.90 7.61 48.58 8.41 48.58 9.38ZM49.71 9.38C49.71 8.71 49.92 8.15 50.34 7.72C50.75 7.29 51.28 7.07 51.91 7.07C52.55 7.07 53.07 7.29 53.49 7.72C53.90 8.15 54.11 8.71 54.11 9.38C54.11 10.05 53.90 10.61 53.49 11.04C53.07 11.47 52.55 11.69 51.91 11.69C51.28 11.69 50.75 11.47 50.34 11.04C49.92 10.61 49.71 10.05 49.71 9.38ZM56.22 9.38C56.22 10.40 56.53 11.21 57.14 11.82C57.75 12.43 58.51 12.74 59.42 12.74C60.39 12.74 61.12 12.32 61.61 11.49L61.61 12.60L62.73 12.60L62.73 1.68L61.61 1.68L61.61 7.27C61.12 6.44 60.39 6.02 59.42 6.02C58.51 6.02 57.75 6.33 57.14 6.94C56.53 7.55 56.22 8.36 56.22 9.38ZM57.36 9.38C57.36 8.66 57.57 8.10 57.99 7.69C58.41 7.28 58.93 7.07 59.56 7.07C60.09 7.07 60.56 7.28 60.98 7.70C61.40 8.12 61.61 8.68 61.61 9.38C61.61 10.08 61.40 10.64 60.98 11.06C60.56 11.48 60.09 11.69 59.56 11.69C58.93 11.69 58.41 11.48 57.99 11.07C57.57 10.66 57.36 10.10 57.36 9.38ZM69.22 8.71L65.38 8.71C65.44 8.19 65.65 7.78 66.03 7.47C66.41 7.16 66.86 7.00 67.40 7.00C67.94 7.00 68.36 7.15 68.67 7.46C68.98 7.77 69.16 8.19 69.22 8.71ZM65.35 9.66L70.42 9.66C70.43 9.59 70.43 9.47 70.43 9.32C70.43 8.32 70.16 7.51 69.60 6.92C69.05 6.32 68.31 6.02 67.40 6.02C66.45 6.02 65.69 6.33 65.09 6.96C64.50 7.59 64.20 8.40 64.20 9.38C64.20 10.35 64.49 11.15 65.07 11.79C65.65 12.42 66.38 12.74 67.26 12.74C68.03 12.74 68.65 12.60 69.10 12.33C69.56 12.06 69.97 11.65 70.32 11.10L69.41 10.53C68.94 11.30 68.26 11.69 67.40 11.69C66.81 11.69 66.33 11.51 65.97 11.16C65.60 10.80 65.40 10.30 65.35 9.66ZM72.27 10.35L71.34 10.88C71.44 11.40 71.73 11.84 72.23 12.20C72.72 12.56 73.27 12.74 73.86 12.74C74.59 12.74 75.17 12.58 75.59 12.26C76.01 11.93 76.22 11.44 76.22 10.78C76.22 10.01 75.62 9.37 74.44 8.88C74.12 8.75 73.87 8.64 73.69 8.55C73.51 8.46 73.32 8.34 73.14 8.18C72.96 8.03 72.87 7.87 72.87 7.71C72.87 7.29 73.20 7.08 73.85 7.08C74.13 7.08 74.40 7.15 74.67 7.28C74.93 7.41 75.13 7.60 75.26 7.85L76.16 7.28C76.04 6.93 75.75 6.63 75.29 6.38C74.83 6.14 74.35 6.02 73.84 6.02C73.29 6.02 72.80 6.18 72.38 6.49C71.96 6.80 71.75 7.21 71.75 7.71C71.75 7.97 71.80 8.19 71.90 8.40C72.01 8.61 72.16 8.78 72.36 8.93C72.56 9.08 72.75 9.20 72.93 9.29C73.10 9.38 73.33 9.48 73.60 9.59C73.84 9.68 74.02 9.76 74.15 9.82C74.28 9.88 74.42 9.97 74.58 10.07C74.75 10.18 74.87 10.30 74.94 10.43C75.02 10.56 75.05 10.71 75.05 10.88C75.05 11.42 74.68 11.69 73.93 11.69C73.53 11.69 73.18 11.56 72.86 11.31C72.55 11.06 72.35 10.74 72.27 10.35Z"></path></g><!----><g data-v-423bf9ae="" id="e2d7bf4d-8108-4e01-b9b9-2815e9e54bd4" transform="matrix(1.0714285714285714,0,0,1.0714285714285714,-8.57142857142857,-8.57142857142857)" stroke="none" fill="#ffffff"><path d="M50 77.527c13.136 0 22.67-7.788 22.67-18.555 0-1.104-.896-1.972-2-1.972H29.328c-1.104 0-2 .868-2 1.972 0 10.768 9.535 18.555 22.672 18.555zM68.526 61c-1.1 7-8.409 12.583-18.526 12.583C39.882 73.583 32.572 68 31.472 61h37.054z"></path><circle cx="36.5" cy="44.86" r="3.506"></circle><path d="M50 92c22.766 0 42-19.233 42-42S72.766 8 50 8 8 27.233 8 50s19.234 42 42 42zm0-80c20.598 0 38 17.402 38 38S70.598 88 50 88 12 70.598 12 50s17.402-38 38-38z"></path><circle cx="64.994" cy="45.86" r="3.506"></circle></g><!----></svg>